<svg xmlns="http://www.w3.org/2000/svg" viewBox="0 0 80 80"><defs><style>.cls-1{fill:#40220F;}</style></defs><title>ico_instagram_bk</title><g id="Design"><path class="cls-1" d="M49.91,23.85H30.09a6.25,6.25,0,0,0-6.24,6.24V49.91a6.25,6.25,0,0,0,6.24,6.24H49.91a6.25,6.25,0,0,0,6.24-6.24V30.09A6.25,6.25,0,0,0,49.91,23.85Zm1.79,3.72h.72V33l-5.46,0,0-5.47ZM35.39,36.68A5.68,5.68,0,1,1,34.31,40,5.68,5.68,0,0,1,35.39,36.68ZM53,49.91a3.1,3.1,0,0,1-3.1,3.1H30.09a3.1,3.1,0,0,1-3.1-3.1V36.68h4.83a8.83,8.83,0,1,0,16.36,0H53Z"/></g></svg>