<svg xmlns="http://www.w3.org/2000/svg" viewBox="0 0 80 80"><defs><style>.cls-1{fill:#fff;}</style></defs><title>ico_line_wh</title><g id="Design"><path class="cls-1" d="M66,36.32C66,24.68,54.35,15.2,40,15.2S14,24.68,14,36.32c0,10.44,9.26,19.19,21.77,20.84.85.18,2,.56,2.29,1.28a5.38,5.38,0,0,1,.09,2.36s-.31,1.83-.37,2.23c-.12.65-.53,2.57,2.25,1.4S55,55.6,60.45,49.32h0C64.22,45.18,66,41,66,36.32ZM29.81,43.25H24.64a1.36,1.36,0,0,1-1.36-1.36V31.54a1.36,1.36,0,0,1,2.72,0v9h3.81a1.37,1.37,0,1,1,0,2.73Zm5.35-1.36a1.37,1.37,0,0,1-2.73,0V31.54a1.37,1.37,0,0,1,2.73,0Zm12.45,0a1.35,1.35,0,0,1-.93,1.29,1.31,1.31,0,0,1-.44.07,1.36,1.36,0,0,1-1.09-.55l-5.3-7.21v6.4a1.37,1.37,0,0,1-2.73,0V31.54a1.35,1.35,0,0,1,.94-1.29,1.25,1.25,0,0,1,.43-.07,1.38,1.38,0,0,1,1.09.54l5.3,7.22v-6.4a1.37,1.37,0,0,1,2.73,0ZM56,35.35a1.37,1.37,0,0,1,0,2.73H52.17v2.44H56a1.37,1.37,0,0,1,0,2.73H50.81a1.36,1.36,0,0,1-1.37-1.36V36.72h0V31.55h0a1.36,1.36,0,0,1,1.37-1.36H56a1.37,1.37,0,0,1,0,2.73H52.17v2.44Z"/></g></svg>