<svg xmlns="http://www.w3.org/2000/svg" viewBox="0 0 80 80"><defs><style>.cls-1{fill:#fff;}</style></defs><title>ico_twitter_wh</title><g id="Design"><g id="デザイン"><g id="フッターpc"><g id="アイコン-ツイッター"><path class="cls-1" d="M58.31,27.65A14.23,14.23,0,0,1,54,28.93a8,8,0,0,0,3.26-4.47,15.06,15.06,0,0,1-4.78,2,7.26,7.26,0,0,0-5.47-2.57A7.83,7.83,0,0,0,39.53,32a8.78,8.78,0,0,0,.19,1.84,20.86,20.86,0,0,1-15.49-8.55,8.59,8.59,0,0,0-1,4.06A8.19,8.19,0,0,0,26.58,36a7.11,7.11,0,0,1-3.39-1v.1a8,8,0,0,0,6,7.93,7,7,0,0,1-2,.28,6.76,6.76,0,0,1-1.41-.15,7.58,7.58,0,0,0,7,5.62,14.39,14.39,0,0,1-9.33,3.46,13.59,13.59,0,0,1-1.8-.11,20,20,0,0,0,11.52,3.65c13.82,0,21.36-12.32,21.36-23v-1A16.58,16.58,0,0,0,58.31,27.65Z"/></g></g></g></g></svg>