<svg xmlns="http://www.w3.org/2000/svg" viewBox="0 0 28 28"><defs><style>.cls-1{fill:#40220F;}</style></defs><title>ico_twitter_bk</title><g id="デザイン"><g id="フッターpc"><g id="アイコン-ツイッター"><path class="cls-1" d="M22.57,8.27a6.52,6.52,0,0,1-2,.6A3.76,3.76,0,0,0,22.1,6.78a7.06,7.06,0,0,1-2.24.92A3.39,3.39,0,0,0,17.3,6.5a3.66,3.66,0,0,0-3.52,3.79,4.15,4.15,0,0,0,.09.86,9.76,9.76,0,0,1-7.25-4,4,4,0,0,0-.47,1.9,3.84,3.84,0,0,0,1.57,3.15,3.32,3.32,0,0,1-1.59-.47v.05a3.74,3.74,0,0,0,2.82,3.71,3.31,3.31,0,0,1-.93.13,2.79,2.79,0,0,1-.66-.07,3.54,3.54,0,0,0,3.28,2.63,6.72,6.72,0,0,1-4.37,1.62,6.44,6.44,0,0,1-.84-.05,9.41,9.41,0,0,0,5.39,1.71c6.47,0,10-5.77,10-10.77,0-.16,0-.32,0-.48A7.66,7.66,0,0,0,22.57,8.27Z"/></g></g></g></svg>